<svg id="svg" version="1.1" xmlns="http://www.w3.org/2000/svg" viewBox="0 0 404 74" style="display: block;"><path d="M0 0 C133.32 0 266.64 0 404 0 C404 24.42 404 48.84 404 74 C270.68 74 137.36 74 0 74 C0 49.58 0 25.16 0 0 Z " transform="translate(0,0)" style="fill: #000000;"/><path d="M0 0 C65.67 0 131.34 0 199 0 C199 24.42 199 48.84 199 74 C141.91 74 84.82 74 26 74 C26.7301894 70.34905301 27.32498433 67.92995973 28.79077148 64.66650391 C29.1591362 63.83948471 29.52750092 63.01246552 29.9070282 62.16038513 C30.30766983 61.27472366 30.70831146 60.38906219 31.12109375 59.4765625 C31.53716385 58.54566299 31.95323395 57.61476349 32.38191223 56.65565491 C33.72924639 53.64338534 35.0834077 50.63423676 36.4375 47.625 C37.81328508 44.55269148 39.18722251 41.47956138 40.56100464 38.40635681 C41.46272241 36.38939069 42.36500152 34.37267542 43.26785278 32.35621643 C46.64094477 24.81943581 49.97063977 17.26554075 53.25 9.6875 C53.64888428 8.76598145 54.04776855 7.84446289 54.45874023 6.89501953 C55.30754305 4.93075375 56.15413154 2.96553118 57 1 C54.09628092 1.05048951 54.09628092 1.05048951 51 2 C49.12160466 4.46440943 49.12160466 4.46440943 47.88671875 7.703125 C47.36505127 8.90227539 46.84338379 10.10142578 46.3059082 11.33691406 C45.76607625 12.64112603 45.22661403 13.9454911 44.6875 15.25 C44.12222686 16.56832445 43.55474801 17.88570524 42.98510742 19.20214844 C41.56363319 22.50149249 40.16843228 25.81112071 38.78356934 29.12597656 C37.19593799 32.92303475 35.58838714 36.71166388 33.9777832 40.49902344 C33.21467276 42.30055883 32.46025231 44.10580586 31.71557617 45.91503906 C31.38275635 46.71135742 31.04993652 47.50767578 30.70703125 48.328125 C30.4231958 49.0180957 30.13936035 49.70806641 29.84692383 50.41894531 C29 52 29 52 27 53 C26.77306961 52.43259094 26.54613922 51.86518188 26.31233215 51.28057861 C23.94462545 45.36872515 21.55671591 39.46532995 19.15698242 33.56640625 C18.26441537 31.36473006 17.3769967 29.16095932 16.49487305 26.95507812 C15.22496267 23.78208879 13.93664095 20.61712817 12.64453125 17.453125 C12.25473587 16.46757629 11.86494049 15.48202759 11.46333313 14.46661377 C9.39834974 9.46385365 7.8517337 5.85204267 3 3 C2.01 2.67 1.02 2.34 0 2 C0 1.34 0 0.68 0 0 Z " transform="translate(205,0)" style="fill: #000000;"/><path d="M0 0 C6.579375 -0.061875 13.15875 -0.12375 19.9375 -0.1875 C21.99605225 -0.21481201 24.05460449 -0.24212402 26.17553711 -0.27026367 C27.83446672 -0.27903773 29.49340286 -0.28667948 31.15234375 -0.29296875 C31.99156372 -0.30831665 32.83078369 -0.32366455 33.69543457 -0.33947754 C41.5887649 -0.3429199 48.67541248 1.36985952 54.9375 6.375 C55.66839844 6.93960937 56.39929687 7.50421875 57.15234375 8.0859375 C59.24249748 10.25121304 60.06841397 12.16134519 61 15 C59.68 16.32 58.36 17.64 57 19 C56.49210937 18.38511719 55.98421875 17.77023438 55.4609375 17.13671875 C50.08030245 10.81900681 45.79834953 6.69272563 37.140625 5.94921875 C31.04150764 6.09390584 26.41035334 8.10570603 22.1875 12.5 C16.05065845 20.26004326 13.41053552 30.16221204 14.25390625 39.9453125 C15.54114571 49.19952052 17.85340383 55.73670202 25.12109375 61.7734375 C31.33586602 65.83048218 37.80193647 65.79606058 45 65 C52.58200542 62.74532342 57.33611177 58.22366541 62 52 C62.99 52.495 62.99 52.495 64 53 C61.91993796 60.79739105 56.37536271 66.32733027 49.55078125 70.49609375 C34.34432958 77.54424537 15.69018463 74 0 74 C0 49.58 0 25.16 0 0 Z " transform="translate(0,0)" style="fill: #FFFFFF;"/><path d="M0 0 C3.04030435 2.59253395 4.37899663 5.53778122 6.046875 9.1328125 C6.33519196 9.74988068 6.62350891 10.36694885 6.92056274 11.00271606 C7.87036983 13.04045584 8.81040017 15.0825359 9.75 17.125 C10.40927779 18.54673048 11.0689518 19.96827728 11.72900391 21.38964844 C13.47101112 25.14741809 15.20306973 28.90968323 16.93151855 32.67370605 C18.00400713 35.00872432 19.0785034 37.3428105 20.15332031 39.67675781 C21.89946594 43.4708195 23.64033057 47.26725968 25.37658691 51.06585693 C26.04006291 52.51728673 26.70436442 53.96833946 27.36950684 55.41900635 C28.29945172 57.44957923 29.22467437 59.48223379 30.1484375 61.515625 C30.67614746 62.67352539 31.20385742 63.83142578 31.74755859 65.02441406 C33 68 33 68 34 72 C29.71 72 25.42 72 21 72 C13 56.21621622 13 56.21621622 13 52 C3.76 52.33 -5.48 52.66 -15 53 C-17.64 59.27 -20.28 65.54 -23 72 C-25.31 72 -27.62 72 -30 72 C-29.38105731 68.33198266 -28.35883551 65.19431028 -26.87036133 61.78930664 C-26.42932571 60.77377213 -25.9882901 59.75823761 -25.53388977 58.71192932 C-25.05477646 57.62234421 -24.57566315 56.53275909 -24.08203125 55.41015625 C-23.58716721 54.27404404 -23.09230316 53.13793182 -22.58244324 51.96739197 C-21.26485205 48.94468734 -19.9430722 45.92386217 -18.61914062 42.90393066 C-17.29425805 39.87943708 -15.97449511 36.85271247 -14.65429688 33.82617188 C-13.13094718 30.33434076 -11.60718314 26.84269691 -10.08132935 23.35195923 C-6.68560844 15.58282784 -3.31643522 7.80332391 0 0 Z " transform="translate(296,0)" style="fill: #FFFFFF;"/><path d="M0 0 C2.90470697 3.48575936 4.69938732 7.36324511 6.5546875 11.46484375 C7.06215767 12.57167511 7.06215767 12.57167511 7.57987976 13.7008667 C8.68317073 16.11086559 9.77932175 18.52403167 10.875 20.9375 C11.63376667 22.60078893 12.39280205 24.26395531 13.15209961 25.92700195 C15.07265934 30.13802114 16.98624115 34.35216803 18.89703369 38.56762695 C19.95254553 40.89534859 21.00991089 43.22221845 22.06787109 45.54882812 C23.6198463 48.96332234 25.16715908 52.37988308 26.70977783 55.7986145 C27.27689206 57.05484294 27.84504334 58.31060373 28.41424561 59.56588745 C29.19793378 61.29611449 29.97607786 63.02884953 30.75390625 64.76171875 C31.40854858 66.215177 31.40854858 66.215177 32.07641602 67.69799805 C33 70 33 70 33 72 C28.71 72 24.42 72 20 72 C18.66216663 69.04362715 17.32956861 66.08508686 16 63.125 C15.6184375 62.28324219 15.236875 61.44148438 14.84375 60.57421875 C14.30234375 59.36572266 14.30234375 59.36572266 13.75 58.1328125 C13.41484375 57.38918457 13.0796875 56.64555664 12.734375 55.87939453 C12 54 12 54 12 52 C2.76 52.33 -6.48 52.66 -16 53 C-18.64 59.27 -21.28 65.54 -24 72 C-26.31 72 -28.62 72 -31 72 C-28.92308316 65.34836057 -26.38215272 58.99658253 -23.578125 52.62109375 C-23.15505066 51.65075699 -22.73197632 50.68042023 -22.29608154 49.68067932 C-20.95101268 46.59802109 -19.60061051 43.51773367 -18.25 40.4375 C-17.35902039 38.39794133 -16.46839253 36.35822897 -15.578125 34.31835938 C-13.85525584 30.37219552 -12.12919829 26.42745232 -10.40039062 22.48388672 C-8.87089255 18.99387099 -7.34817977 15.50107598 -5.83398438 12.00439453 C-5.50791199 11.25311783 -5.1818396 10.50184113 -4.84588623 9.72779846 C-4.2470213 8.34722275 -3.64994355 6.96586987 -3.05499268 5.58360291 C-1.11202479 1.11202479 -1.11202479 1.11202479 0 0 Z " transform="translate(107,0)" style="fill: #FFFFFF;"/><path d="M0 0 C7.25804105 -0.5184315 12.20270025 0.76738491 17.8125 5.54296875 C20.79204007 8.44935047 23.51359486 11.57558811 26.234375 14.72265625 C29.94941949 18.97752706 33.79926083 23.09116875 37.6875 27.1875 C44.5234028 34.40045974 51.25815651 41.69633622 58 49 C58.33 32.83 58.66 16.66 59 0 C60.98 0 62.96 0 65 0 C65 23.76 65 47.52 65 72 C57.65952961 65.70816823 51.06787719 59.31534801 44.78125 52 C42.9257479 49.91662922 40.98776899 47.95718793 39 46 C35.75752569 42.80740991 32.76579044 39.47578333 29.8046875 36.0234375 C27.20025166 33.10331246 24.41047626 30.38621445 21.6015625 27.6640625 C20 26 20 26 19 24 C18.67 39.51 18.34 55.02 18 71 C15.69 71 13.38 71 11 71 C10.98786972 69.98428169 10.98786972 69.98428169 10.97549438 68.94804382 C10.88899381 61.85800372 10.78947381 54.76822869 10.68261719 47.6784668 C10.64449071 45.0375618 10.60961029 42.39660776 10.578125 39.75561523 C10.53211837 35.94497223 10.47418371 32.13466214 10.4140625 28.32421875 C10.40251129 27.15606125 10.39096008 25.98790375 10.37905884 24.78434753 C10.25281734 17.66635514 9.51852655 10.95751197 8 4 C5.36 3.34 2.72 2.68 0 2 C0 1.34 0 0.68 0 0 Z " transform="translate(339,1)" style="fill: #FFFFFF;"/><path d="M0 0 C2.20770805 -0.08165496 4.41630425 -0.13948488 6.625 -0.1875 C7.85476562 -0.22230469 9.08453125 -0.25710937 10.3515625 -0.29296875 C15.32723025 0.1065763 18.49632841 1.40149544 21.93554688 5.05761719 C24.55957604 8.79754144 26.14241142 12.64743525 27.8203125 16.87890625 C28.16504608 17.72799057 28.50977966 18.57707489 28.86495972 19.45188904 C29.95959452 22.15229132 31.04266612 24.85714698 32.125 27.5625 C33.21682867 30.27041796 34.31101282 32.97736809 35.40646362 35.68382263 C36.08578866 37.36445414 36.76259168 39.04610785 37.43655396 40.72889709 C37.74382416 41.49326584 38.05109436 42.25763458 38.36767578 43.04516602 C38.76927414 44.04846703 38.76927414 44.04846703 39.1789856 45.07203674 C40.03981116 47.09348735 40.99842624 49.04496547 42 51 C42.77863403 49.21553467 42.77863403 49.21553467 43.57299805 47.39501953 C45.51792198 42.93958667 47.46634354 38.48569036 49.41577148 34.03222656 C50.25557897 32.11239021 51.09446448 30.19215026 51.93237305 28.27148438 C53.14383787 25.49500037 54.35872097 22.72003291 55.57421875 19.9453125 C55.94214035 19.1001004 56.31006195 18.25488831 56.68913269 17.38406372 C59.27545548 11.49224148 62.07468297 5.73073427 65 0 C66.98 0 68.96 0 71 0 C69.00498732 6.37646233 66.60258573 12.45473046 63.8671875 18.546875 C63.47105255 19.43876526 63.0749176 20.33065552 62.66677856 21.24957275 C61.40675446 24.08480459 60.14120384 26.91752335 58.875 29.75 C57.22452655 33.4522207 55.57650376 37.15552619 53.9296875 40.859375 C53.52490173 41.76901001 53.12011597 42.67864502 52.70306396 43.61584473 C48.37309681 53.36952042 44.17529214 63.17929873 40 73 C39.34 73 38.68 73 38 73 C32.89280764 61.59323693 27.86495424 50.16173072 23.10546875 38.60546875 C22.77548386 37.80571625 22.44549896 37.00596375 22.10551453 36.18197632 C20.46595475 32.20502482 18.83527961 28.22473306 17.21655273 24.23925781 C13.18290287 12.03193893 13.18290287 12.03193893 5.1496582 3.09155273 C3.01008155 2.39771209 3.01008155 2.39771209 0 2 C0 1.34 0 0.68 0 0 Z " transform="translate(191,1)" style="fill: #FFFFFF;"/><path d="M0 0 C7.26 0 14.52 0 22 0 C22 23.43 22 46.86 22 71 C18.04 71 14.08 71 10 71 C9.98018066 69.14802002 9.96036133 67.29604004 9.93994141 65.38793945 C9.87210204 59.26106772 9.79532149 53.13435878 9.71247292 47.00767231 C9.66258017 43.29397105 9.61624976 39.58029727 9.578125 35.86645508 C9.54118313 32.28071544 9.49479951 28.69520966 9.44193649 25.10967064 C9.42343971 23.74342143 9.4083144 22.37712218 9.39665604 21.0107975 C9.37971343 19.09344217 9.34954601 17.17621763 9.31884766 15.2590332 C9.30552399 14.16871292 9.29220032 13.07839264 9.2784729 11.95503235 C8.9882024 8.87480908 8.49268295 6.71020923 7 4 C3.46485707 2.62032476 3.46485707 2.62032476 0 2 C0 1.34 0 0.68 0 0 Z " transform="translate(152,1)" style="fill: #FFFFFF;"/><path d="M0 0 C2.27687802 2.8369941 3.83468917 5.57255422 5.26171875 8.9140625 C5.65810547 9.83960938 6.05449219 10.76515625 6.46289062 11.71875 C7.06907227 13.15734375 7.06907227 13.15734375 7.6875 14.625 C8.10322266 15.59179688 8.51894531 16.55859375 8.94726562 17.5546875 C12 24.73287408 12 24.73287408 12 27 C4.41 27 -3.18 27 -11 27 C-9.35520626 22.87458268 -7.70921498 18.74965035 -6.0625 14.625 C-5.59392578 13.449375 -5.12535156 12.27375 -4.64257812 11.0625 C-3.9706543 9.38027344 -3.9706543 9.38027344 -3.28515625 7.6640625 C-2.87144775 6.62717285 -2.45773926 5.5902832 -2.03149414 4.52197266 C-1 2 -1 2 0 0 Z " transform="translate(104,20)" style="fill: #000000;"/><path d="M0 0 C1.83044062 2.74566092 3.07436292 5.27317656 4.3828125 8.2890625 C5.04990234 9.82433594 5.04990234 9.82433594 5.73046875 11.390625 C6.19066406 12.45796875 6.65085937 13.5253125 7.125 14.625 C7.82689453 16.23761719 7.82689453 16.23761719 8.54296875 17.8828125 C12 25.86522868 12 25.86522868 12 27 C4.41 27 -3.18 27 -11 27 C-7.625 16.875 -7.625 16.875 -5.95703125 13.18359375 C-5.43012695 12.00893555 -5.43012695 12.00893555 -4.89257812 10.81054688 C-4.53615234 10.02744141 -4.17972656 9.24433594 -3.8125 8.4375 C-3.44447266 7.61958984 -3.07644531 6.80167969 -2.69726562 5.95898438 C-1.80204987 3.97090782 -0.9015835 1.98519692 0 0 Z " transform="translate(294,20)" style="fill: #000000;"/><path d="M0 0 C1.11790736 2.23581472 2.21432326 4.48393373 3.2265625 6.76953125 C7.68104202 16.46237915 12.86298352 22.24707143 22.8125 26.2890625 C25.88964396 27.28913429 28.77904684 27.72587633 32 28 C32 28.33 32 28.66 32 29 C21.44 29 10.88 29 0 29 C0 19.43 0 9.86 0 0 Z " transform="translate(0,45)" style="fill: #000000;"/><path d="M0 0 C9.24 0 18.48 0 28 0 C25.87287018 1.06356491 23.74329205 2.12271892 21.59765625 3.1484375 C11.97456211 7.80429507 6.01722104 12.92071144 2.17578125 23.20703125 C1.72173156 24.78815465 1.3494524 26.39251894 1 28 C0.67 28 0.34 28 0 28 C0 18.76 0 9.52 0 0 Z " transform="translate(0,0)" style="fill: #000000;"/></svg>